<?xml version="1.0"?>
<svg xmlns="http://www.w3.org/2000/svg" height="512px" viewBox="0 0 512 512" width="512px" class=""><g><path d="m512 310.699219v-109.398438h-55.28125c-4.609375-16.992187-11.347656-33.242187-20.117188-48.539062l39.097657-39.101563-77.359375-77.359375-39.101563 39.097657c-15.296875-8.769532-31.546875-15.507813-48.539062-20.117188v-55.28125h-109.398438v55.28125c-16.992187 4.609375-33.242187 11.347656-48.539062 20.117188l-39.101563-39.097657-77.359375 77.359375 39.097657 39.101563c-8.769532 15.296875-15.507813 31.546875-20.117188 48.539062h-55.28125v109.398438h55.28125c4.609375 16.992187 11.347656 33.242187 20.117188 48.539062l-39.097657 39.101563 77.359375 77.359375 39.101563-39.097657c15.296875 8.769532 31.546875 15.507813 48.539062 20.117188v55.28125h109.398438v-55.28125c16.992187-4.609375 33.242187-11.347656 48.539062-20.117188l39.101563 39.097657 77.359375-77.359375-39.097657-39.101563c8.769532-15.296875 15.507813-31.546875 20.117188-48.539062zm-256 53.050781c-59.511719 0-107.75-48.238281-107.75-107.75s48.238281-107.75 107.75-107.75 107.75 48.238281 107.75 107.75-48.238281 107.75-107.75 107.75zm0 0" fill="#00a6ff" data-original="#00A6FF" class="active-path" style="fill:#415F51" data-old_color="#00a6ff"/><path d="m456.71875 310.699219c-4.609375 16.992187-11.347656 33.242187-20.117188 48.539062l39.097657 39.101563-77.359375 77.359375-39.101563-39.097657c-15.296875 8.769532-31.546875 15.507813-48.539062 20.117188v55.28125h-54.699219v-148.25c59.511719 0 107.75-48.238281 107.75-107.75s-48.238281-107.75-107.75-107.75v-148.25h54.699219v55.28125c16.992187 4.609375 33.242187 11.347656 48.539062 20.117188l39.101563-39.097657 77.359375 77.359375-39.097657 39.101563c8.769532 15.296875 15.507813 31.546875 20.117188 48.539062h55.28125v109.398438zm0 0" fill="#006ef5" data-original="#006EF5" class="" style="fill:#3D9970" data-old_color="#006ef5"/></g> </svg>
